<?xml version="1.0" encoding="utf-8"?><svg version="1.1" xmlns="http://www.w3.org/2000/svg" xmlns:xlink="http://www.w3.org/1999/xlink" x="0px" y="0px" width="1200px" height="1200px" viewBox="-16.019 -1.727 1200 1200" style="enable-background:new -16.019 -1.727 1200 1200;" xml:space="preserve"> <title>Google New logo 2015 - free.arinco.org</title><metadata><script type="application/ld+json">{ "@context": "http://schema.org", "@type": "ImageObject", "encodingFormat": "image/svg+xml", "version": "1.0", "contentSize": "2.87 KB", "embedUrl": "http://free.arinco.org/mail/gmail/index3.html, "contentUrl": "http://free.arinco.org/images/mail/mail-google-g-logo-2015.svg", "inLanguage": "en-US", "dateCreated": "2015-09-21T07:18:56+09:00","datePublished":"2016-06-11T17:48:30+09:00", "description": "The logo has been used in free.arinco.org", "name": "Google SVG Vector Logo", "keywords":"gmail ,free ,arinco ,email ,vector ,logo ,svg ,google ,2015 ,new", "isFamilyFriendly": "True", "author": { "@type": "Person", "name": "free.", "url": "https://plus.google.com/111421836269129006522/"}}</script></metadata><style><![CDATA[.google-st0{fill:#EA4335;}.google-st1{fill:#FBBC05;} .google-st2{fill:#34A853;}.google-st3{fill:#4285F4;}]]></style><a id="mail-google-link" xlink:href="http://free.arinco.org/mail/gmail/index3.html#svg"><path class="google-st0" d="M403.856,32.856C533.583-12,679.123-11.031,808.204,36.404c71.637,26.462,137.145,67.768,193.296,119.723 c-18.716,20.331-39.046,39.371-58.408,59.056c-36.789,36.787-73.574,73.576-110.364,110.363 c-36.465-34.851-80.997-61.314-129.402-76.158c-56.797-17.103-118.111-19.683-176.197-7.098 c-67.767,14.521-130.693,50.018-179.42,99.714c-39.37,39.691-69.06,88.743-87.129,141.666 C195.071,432.684,129.56,382.019,63.73,331.032C133.111,192.271,257.673,82.875,403.856,32.856z"/><path class="google-st1" d="M11.773,481.411c10.652-52.278,28.076-103.265,52.278-151.024c65.508,50.988,131.019,101.65,196.848,152.638 c-25.816,75.189-25.816,158.77,0,233.634C195.392,767.648,129.884,818.635,64.376,869.3C3.707,750.867-14.686,611.78,11.773,481.411 z"/><path class="google-st3" d="M600.062,487.543c188.134,0,376.59,0,564.725,0c18.719,105.521,14.521,215.565-15.165,318.829 c-27.429,94.551-79.387,182.327-151.994,249.123c-63.573-49.372-127.143-98.745-190.716-148.117 c62.928-42.275,107.459-110.687,120.046-185.554c-109.072,0-218.148,0-327.221,0C600.062,643.729,600.062,565.636,600.062,487.543z" /><path class="google-st2" d="M63.73,869.621c65.508-50.665,131.016-101.651,196.523-152.638c25.173,73.897,73.578,139.408,137.473,184.262 c40.013,28.075,85.837,48.084,133.596,57.765c47.116,9.682,95.844,8.39,143.281,0.322c47.113-8.39,92.615-25.492,132.307-52.278 c63.573,49.375,127.143,98.748,190.716,148.12c-68.735,63.573-154.896,106.813-245.896,127.789 c-100.683,22.914-207.175,23.56-307.213-3.227c-79.386-20.977-153.929-58.73-218.147-110.041 C158.927,1016.129,102.776,947.069,63.73,869.621z"/></a></svg>